<svg width="1024" height="1024" viewBox="0 0 1024 1024" fill="none" xmlns="http://www.w3.org/2000/svg" role="img" aria-label="Wallet Code Sabai">
  <defs>
    <linearGradient id="bg" x1="176" y1="128" x2="848" y2="904" gradientUnits="userSpaceOnUse">
      <stop stop-color="#0EA5E9"/>
      <stop offset="0.58" stop-color="#2563EB"/>
      <stop offset="1" stop-color="#10B981"/>
    </linearGradient>
    <linearGradient id="card" x1="386" y1="322" x2="640" y2="592" gradientUnits="userSpaceOnUse">
      <stop stop-color="#FFFFFF"/>
      <stop offset="1" stop-color="#F8FAFC"/>
    </linearGradient>
    <filter id="shadow" x="156" y="152" width="712" height="712" filterUnits="userSpaceOnUse" color-interpolation-filters="sRGB">
      <feFlood flood-opacity="0" result="BackgroundImageFix"/>
      <feColorMatrix in="SourceAlpha" type="matrix" values="0 0 0 0 0 0 0 0 0 0 0 0 0 0 0 0 0 0 127 0" result="hardAlpha"/>
      <feOffset dy="24"/>
      <feGaussianBlur stdDeviation="24"/>
      <feColorMatrix type="matrix" values="0 0 0 0 0.0156863 0 0 0 0 0.0588235 0 0 0 0 0.192157 0 0 0 0.28 0"/>
      <feBlend mode="normal" in2="BackgroundImageFix" result="effect1_dropShadow_241_80"/>
      <feBlend mode="normal" in="SourceGraphic" in2="effect1_dropShadow_241_80" result="shape"/>
    </filter>
  </defs>

  <g filter="url(#shadow)">
    <rect x="234" y="250" width="556" height="524" rx="124" fill="url(#card)"/>
    <rect x="234" y="250" width="556" height="164" rx="124" fill="#0F172A" fill-opacity="0.06"/>
    <rect x="428" y="250" width="168" height="68" rx="34" fill="#0F172A" fill-opacity="0.08"/>
    <rect x="290" y="466" width="444" height="170" rx="42" fill="#0F172A" fill-opacity="0.04"/>
    <path d="M364 492C364 477.088 376.088 465 391 465H625C639.912 465 652 477.088 652 492C652 506.912 639.912 519 625 519H391C376.088 519 364 506.912 364 492Z" fill="#0F172A" fill-opacity="0.10"/>
    <path d="M364 560H576" stroke="#0F172A" stroke-opacity="0.14" stroke-width="22" stroke-linecap="round"/>
    <path d="M520 526C520 500.594 540.594 480 566 480H612C637.406 480 658 500.594 658 526V556C658 581.406 637.406 602 612 602H566C540.594 602 520 581.406 520 556V526Z" fill="url(#bg)"/>
    <circle cx="589" cy="541" r="18" fill="white" fill-opacity="0.92"/>
    <path d="M310 370L266 400L310 430" stroke="#FFFFFF" stroke-width="26" stroke-linecap="round" stroke-linejoin="round" stroke-opacity="0.92"/>
    <path d="M714 370L758 400L714 430" stroke="#FFFFFF" stroke-width="26" stroke-linecap="round" stroke-linejoin="round" stroke-opacity="0.92"/>
    <path d="M500 664L470 728" stroke="#FFFFFF" stroke-width="24" stroke-linecap="round" stroke-linejoin="round" stroke-opacity="0.92"/>
    <path d="M528 664L558 728" stroke="#FFFFFF" stroke-width="24" stroke-linecap="round" stroke-linejoin="round" stroke-opacity="0.92"/>
  </g>
</svg>
